<svg width="539" height="236" viewBox="0 0 539 236" fill="none" xmlns="http://www.w3.org/2000/svg">
<g clip-path="url(#clip0_50251_4226)">
<g clip-path="url(#clip1_50251_4226)">
<rect x="320" y="212" width="32" height="32" rx="10" fill="black" fill-opacity="0.05"/>
<foreignObject x="224" y="116" width="224" height="224"><div xmlns="http://www.w3.org/1999/xhtml" style="backdrop-filter:blur(50px);clip-path:url(#bgblur_2_50251_4226_clip_path);height:100%;width:100%"></div></foreignObject><g filter="url(#filter0_i_50251_4226)" data-figma-bg-blur-radius="100">
<rect x="324" y="216" width="24" height="24" rx="8" fill="url(#paint0_linear_50251_4226)"/>
<rect x="324.75" y="216.75" width="22.5" height="22.5" rx="7.25" stroke="url(#paint1_linear_50251_4226)" stroke-opacity="0.8" stroke-width="1.5"/>
</g>
<rect x="360" y="216" width="160" height="12" rx="2.01786" fill="url(#paint2_linear_50251_4226)" fill-opacity="0.09"/>
<rect x="320" y="172" width="32" height="32" rx="10" fill="black" fill-opacity="0.05"/>
<foreignObject x="224" y="76" width="224" height="224"><div xmlns="http://www.w3.org/1999/xhtml" style="backdrop-filter:blur(50px);clip-path:url(#bgblur_3_50251_4226_clip_path);height:100%;width:100%"></div></foreignObject><g filter="url(#filter1_i_50251_4226)" data-figma-bg-blur-radius="100">
<rect x="324" y="176" width="24" height="24" rx="8" fill="url(#paint3_linear_50251_4226)"/>
<rect x="324.75" y="176.75" width="22.5" height="22.5" rx="7.25" stroke="url(#paint4_linear_50251_4226)" stroke-opacity="0.8" stroke-width="1.5"/>
</g>
<rect x="360" y="176" width="200" height="12" rx="2.01786" fill="url(#paint5_linear_50251_4226)" fill-opacity="0.09"/>
<rect x="320" y="132" width="32" height="32" rx="10" fill="black" fill-opacity="0.05"/>
<foreignObject x="224" y="36" width="224" height="224"><div xmlns="http://www.w3.org/1999/xhtml" style="backdrop-filter:blur(50px);clip-path:url(#bgblur_4_50251_4226_clip_path);height:100%;width:100%"></div></foreignObject><g filter="url(#filter2_i_50251_4226)" data-figma-bg-blur-radius="100">
<rect x="324" y="136" width="24" height="24" rx="8" fill="url(#paint6_linear_50251_4226)"/>
<rect x="324.75" y="136.75" width="22.5" height="22.5" rx="7.25" stroke="url(#paint7_linear_50251_4226)" stroke-opacity="0.8" stroke-width="1.5"/>
</g>
<rect x="360" y="150" width="80" height="12" rx="2.01786" fill="url(#paint8_linear_50251_4226)" fill-opacity="0.09"/>
<rect x="360" y="134" width="200" height="12" rx="2.01786" fill="url(#paint9_linear_50251_4226)" fill-opacity="0.09"/>
<rect x="320" y="92" width="32" height="32" rx="10" fill="black" fill-opacity="0.05"/>
<rect x="320.75" y="92.75" width="30.5" height="30.5" rx="9.25" stroke="#F8F8F8" stroke-opacity="0.4" stroke-width="1.5"/>
<foreignObject x="224" y="-4" width="224" height="224"><div xmlns="http://www.w3.org/1999/xhtml" style="backdrop-filter:blur(50px);clip-path:url(#bgblur_6_50251_4226_clip_path);height:100%;width:100%"></div></foreignObject><g filter="url(#filter3_i_50251_4226)" data-figma-bg-blur-radius="100">
<g clip-path="url(#clip5_50251_4226)">
<rect x="324" y="96" width="24" height="24" rx="8" fill="url(#paint10_linear_50251_4226)"/>
<path d="M333.294 110.464C333.684 110.854 334.317 110.854 334.708 110.464L342.486 102.686C342.876 102.295 343.51 102.295 343.9 102.686C344.291 103.076 344.291 103.709 343.9 104.1L334.708 113.292C334.317 113.683 333.684 113.683 333.294 113.292L328.344 108.343C327.953 107.952 327.953 107.319 328.344 106.928C328.734 106.538 329.368 106.538 329.758 106.928L333.294 110.464Z" fill="#D7187A" fill-opacity="0.8"/>
</g>
<rect x="324.75" y="96.75" width="22.5" height="22.5" rx="7.25" stroke="url(#paint11_linear_50251_4226)" stroke-width="1.5"/>
</g>
<rect x="360" y="110" width="120" height="12" rx="2.01786" fill="url(#paint12_linear_50251_4226)" fill-opacity="0.09"/>
<rect x="360" y="94" width="200" height="12" rx="2.01786" fill="url(#paint13_linear_50251_4226)" fill-opacity="0.09"/>
<path d="M347.084 108.183C346.896 108.116 346.705 108.047 346.545 108.005C346.392 107.966 346.097 107.9 345.781 108.009C345.419 108.135 345.135 108.419 345.009 108.781C344.9 109.097 344.966 109.392 345.005 109.545C345.047 109.705 345.116 109.896 345.183 110.084L349.957 123.383C350.041 123.617 350.121 123.841 350.201 124.013C350.268 124.159 350.42 124.478 350.751 124.658C351.114 124.855 351.55 124.861 351.917 124.673C352.253 124.502 352.414 124.187 352.485 124.043C352.569 123.873 352.655 123.651 352.745 123.42L354.894 117.894L360.42 115.745C360.651 115.655 360.873 115.569 361.043 115.485C361.187 115.414 361.502 115.253 361.673 114.917C361.861 114.55 361.855 114.114 361.658 113.751C361.478 113.42 361.159 113.268 361.013 113.201C360.841 113.121 360.617 113.041 360.383 112.957L347.084 108.183Z" fill="#121212" stroke="#F8F8F8" stroke-width="1.5" stroke-linecap="round" stroke-linejoin="round"/>
<path d="M321.32 32C321.232 32 321.164 31.976 321.116 31.928C321.068 31.872 321.044 31.804 321.044 31.724V23.888C321.044 23.8 321.068 23.732 321.116 23.684C321.164 23.628 321.232 23.6 321.32 23.6H324.248C325.152 23.6 325.868 23.812 326.396 24.236C326.924 24.66 327.188 25.288 327.188 26.12C327.188 26.736 327.032 27.24 326.72 27.632C326.416 28.016 326 28.284 325.472 28.436L327.32 31.628C327.344 31.676 327.356 31.72 327.356 31.76C327.356 31.824 327.328 31.88 327.272 31.928C327.224 31.976 327.168 32 327.104 32H326.528C326.392 32 326.292 31.964 326.228 31.892C326.164 31.82 326.108 31.748 326.06 31.676L324.32 28.628H322.22V31.724C322.22 31.804 322.192 31.872 322.136 31.928C322.088 31.976 322.02 32 321.932 32H321.32ZM322.22 27.608H324.2C324.8 27.608 325.248 27.484 325.544 27.236C325.84 26.98 325.988 26.604 325.988 26.108C325.988 25.62 325.84 25.248 325.544 24.992C325.256 24.736 324.808 24.608 324.2 24.608H322.22V27.608ZM331.165 32.12C330.341 32.12 329.685 31.868 329.197 31.364C328.709 30.852 328.441 30.156 328.393 29.276C328.385 29.172 328.381 29.04 328.381 28.88C328.381 28.712 328.385 28.576 328.393 28.472C328.425 27.904 328.557 27.408 328.789 26.984C329.021 26.552 329.337 26.22 329.737 25.988C330.145 25.756 330.621 25.64 331.165 25.64C331.773 25.64 332.281 25.768 332.689 26.024C333.105 26.28 333.421 26.644 333.637 27.116C333.853 27.588 333.961 28.14 333.961 28.772V28.976C333.961 29.064 333.933 29.132 333.877 29.18C333.829 29.228 333.765 29.252 333.685 29.252H329.533C329.533 29.26 329.533 29.276 329.533 29.3C329.533 29.324 329.533 29.344 329.533 29.36C329.549 29.688 329.621 29.996 329.749 30.284C329.877 30.564 330.061 30.792 330.301 30.968C330.541 31.144 330.829 31.232 331.165 31.232C331.453 31.232 331.693 31.188 331.885 31.1C332.077 31.012 332.233 30.916 332.353 30.812C332.473 30.7 332.553 30.616 332.593 30.56C332.665 30.456 332.721 30.396 332.761 30.38C332.801 30.356 332.865 30.344 332.953 30.344H333.529C333.609 30.344 333.673 30.368 333.721 30.416C333.777 30.456 333.801 30.516 333.793 30.596C333.785 30.716 333.721 30.864 333.601 31.04C333.481 31.208 333.309 31.376 333.085 31.544C332.861 31.712 332.589 31.852 332.269 31.964C331.949 32.068 331.581 32.12 331.165 32.12ZM329.533 28.424H332.821V28.388C332.821 28.028 332.753 27.708 332.617 27.428C332.489 27.148 332.301 26.928 332.053 26.768C331.805 26.6 331.509 26.516 331.165 26.516C330.821 26.516 330.525 26.6 330.277 26.768C330.037 26.928 329.853 27.148 329.725 27.428C329.597 27.708 329.533 28.028 329.533 28.388V28.424ZM337.556 32.12C337.108 32.12 336.724 32.064 336.404 31.952C336.084 31.84 335.824 31.704 335.624 31.544C335.424 31.384 335.272 31.224 335.168 31.064C335.072 30.904 335.02 30.776 335.012 30.68C335.004 30.592 335.032 30.524 335.096 30.476C335.16 30.428 335.224 30.404 335.288 30.404H335.816C335.864 30.404 335.9 30.412 335.924 30.428C335.956 30.436 335.996 30.468 336.044 30.524C336.148 30.636 336.264 30.748 336.392 30.86C336.52 30.972 336.676 31.064 336.86 31.136C337.052 31.208 337.288 31.244 337.568 31.244C337.976 31.244 338.312 31.168 338.576 31.016C338.84 30.856 338.972 30.624 338.972 30.32C338.972 30.12 338.916 29.96 338.804 29.84C338.7 29.72 338.508 29.612 338.228 29.516C337.956 29.42 337.58 29.32 337.1 29.216C336.62 29.104 336.24 28.968 335.96 28.808C335.68 28.64 335.48 28.444 335.36 28.22C335.24 27.988 335.18 27.728 335.18 27.44C335.18 27.144 335.268 26.86 335.444 26.588C335.62 26.308 335.876 26.08 336.212 25.904C336.556 25.728 336.984 25.64 337.496 25.64C337.912 25.64 338.268 25.692 338.564 25.796C338.86 25.9 339.104 26.032 339.296 26.192C339.488 26.344 339.632 26.496 339.728 26.648C339.824 26.8 339.876 26.928 339.884 27.032C339.892 27.112 339.868 27.18 339.812 27.236C339.756 27.284 339.692 27.308 339.62 27.308H339.116C339.06 27.308 339.012 27.296 338.972 27.272C338.94 27.248 338.908 27.22 338.876 27.188C338.796 27.084 338.7 26.98 338.588 26.876C338.484 26.772 338.344 26.688 338.168 26.624C338 26.552 337.776 26.516 337.496 26.516C337.096 26.516 336.796 26.6 336.596 26.768C336.396 26.936 336.296 27.148 336.296 27.404C336.296 27.556 336.34 27.692 336.428 27.812C336.516 27.932 336.684 28.04 336.932 28.136C337.18 28.232 337.548 28.336 338.036 28.448C338.564 28.552 338.98 28.692 339.284 28.868C339.588 29.044 339.804 29.248 339.932 29.48C340.06 29.712 340.124 29.98 340.124 30.284C340.124 30.62 340.024 30.928 339.824 31.208C339.632 31.488 339.344 31.712 338.96 31.88C338.584 32.04 338.116 32.12 337.556 32.12ZM343.997 32.12C343.173 32.12 342.517 31.868 342.029 31.364C341.541 30.852 341.273 30.156 341.225 29.276C341.217 29.172 341.213 29.04 341.213 28.88C341.213 28.712 341.217 28.576 341.225 28.472C341.257 27.904 341.389 27.408 341.621 26.984C341.853 26.552 342.169 26.22 342.569 25.988C342.977 25.756 343.453 25.64 343.997 25.64C344.605 25.64 345.113 25.768 345.521 26.024C345.937 26.28 346.253 26.644 346.469 27.116C346.685 27.588 346.793 28.14 346.793 28.772V28.976C346.793 29.064 346.765 29.132 346.709 29.18C346.661 29.228 346.597 29.252 346.517 29.252H342.365C342.365 29.26 342.365 29.276 342.365 29.3C342.365 29.324 342.365 29.344 342.365 29.36C342.381 29.688 342.453 29.996 342.581 30.284C342.709 30.564 342.893 30.792 343.133 30.968C343.373 31.144 343.661 31.232 343.997 31.232C344.285 31.232 344.525 31.188 344.717 31.1C344.909 31.012 345.065 30.916 345.185 30.812C345.305 30.7 345.385 30.616 345.425 30.56C345.497 30.456 345.553 30.396 345.593 30.38C345.633 30.356 345.697 30.344 345.785 30.344H346.361C346.441 30.344 346.505 30.368 346.553 30.416C346.609 30.456 346.633 30.516 346.625 30.596C346.617 30.716 346.553 30.864 346.433 31.04C346.313 31.208 346.141 31.376 345.917 31.544C345.693 31.712 345.421 31.852 345.101 31.964C344.781 32.068 344.413 32.12 343.997 32.12ZM342.365 28.424H345.653V28.388C345.653 28.028 345.585 27.708 345.449 27.428C345.321 27.148 345.133 26.928 344.885 26.768C344.637 26.6 344.341 26.516 343.997 26.516C343.653 26.516 343.357 26.6 343.109 26.768C342.869 26.928 342.685 27.148 342.557 27.428C342.429 27.708 342.365 28.028 342.365 28.388V28.424ZM349.968 32.12C349.568 32.12 349.204 32.04 348.876 31.88C348.548 31.72 348.284 31.504 348.084 31.232C347.884 30.96 347.784 30.652 347.784 30.308C347.784 29.756 348.008 29.316 348.456 28.988C348.904 28.66 349.488 28.444 350.208 28.34L351.996 28.088V27.74C351.996 27.356 351.884 27.056 351.66 26.84C351.444 26.624 351.088 26.516 350.592 26.516C350.232 26.516 349.94 26.588 349.716 26.732C349.5 26.876 349.348 27.06 349.26 27.284C349.212 27.404 349.128 27.464 349.008 27.464H348.468C348.38 27.464 348.312 27.44 348.264 27.392C348.224 27.336 348.204 27.272 348.204 27.2C348.204 27.08 348.248 26.932 348.336 26.756C348.432 26.58 348.576 26.408 348.768 26.24C348.96 26.072 349.204 25.932 349.5 25.82C349.804 25.7 350.172 25.64 350.604 25.64C351.084 25.64 351.488 25.704 351.816 25.832C352.144 25.952 352.4 26.116 352.584 26.324C352.776 26.532 352.912 26.768 352.992 27.032C353.08 27.296 353.124 27.564 353.124 27.836V31.724C353.124 31.804 353.096 31.872 353.04 31.928C352.992 31.976 352.928 32 352.848 32H352.296C352.208 32 352.14 31.976 352.092 31.928C352.044 31.872 352.02 31.804 352.02 31.724V31.208C351.916 31.352 351.776 31.496 351.6 31.64C351.424 31.776 351.204 31.892 350.94 31.988C350.676 32.076 350.352 32.12 349.968 32.12ZM350.22 31.22C350.548 31.22 350.848 31.152 351.12 31.016C351.392 30.872 351.604 30.652 351.756 30.356C351.916 30.06 351.996 29.688 351.996 29.24V28.904L350.604 29.108C350.036 29.188 349.608 29.324 349.32 29.516C349.032 29.7 348.888 29.936 348.888 30.224C348.888 30.448 348.952 30.636 349.08 30.788C349.216 30.932 349.384 31.04 349.584 31.112C349.792 31.184 350.004 31.22 350.22 31.22ZM355.125 32C355.045 32 354.977 31.976 354.921 31.928C354.873 31.872 354.849 31.804 354.849 31.724V26.048C354.849 25.968 354.873 25.9 354.921 25.844C354.977 25.788 355.045 25.76 355.125 25.76H355.677C355.757 25.76 355.825 25.788 355.881 25.844C355.937 25.9 355.965 25.968 355.965 26.048V26.576C356.125 26.304 356.345 26.1 356.625 25.964C356.905 25.828 357.241 25.76 357.633 25.76H358.113C358.193 25.76 358.257 25.788 358.305 25.844C358.353 25.892 358.377 25.956 358.377 26.036V26.528C358.377 26.608 358.353 26.672 358.305 26.72C358.257 26.768 358.193 26.792 358.113 26.792H357.393C356.961 26.792 356.621 26.92 356.373 27.176C356.125 27.424 356.001 27.764 356.001 28.196V31.724C356.001 31.804 355.973 31.872 355.917 31.928C355.861 31.976 355.793 32 355.713 32H355.125ZM361.81 32.12C361.242 32.12 360.75 32.012 360.334 31.796C359.926 31.572 359.61 31.256 359.386 30.848C359.162 30.432 359.042 29.936 359.026 29.36C359.018 29.24 359.014 29.08 359.014 28.88C359.014 28.68 359.018 28.52 359.026 28.4C359.042 27.824 359.162 27.332 359.386 26.924C359.61 26.508 359.926 26.192 360.334 25.976C360.75 25.752 361.242 25.64 361.81 25.64C362.274 25.64 362.67 25.704 362.998 25.832C363.334 25.96 363.61 26.124 363.826 26.324C364.042 26.524 364.202 26.74 364.306 26.972C364.418 27.204 364.478 27.424 364.486 27.632C364.494 27.712 364.47 27.776 364.414 27.824C364.358 27.872 364.29 27.896 364.21 27.896H363.634C363.554 27.896 363.494 27.88 363.454 27.848C363.414 27.808 363.374 27.744 363.334 27.656C363.19 27.264 362.994 26.988 362.746 26.828C362.498 26.668 362.19 26.588 361.822 26.588C361.342 26.588 360.95 26.736 360.646 27.032C360.35 27.328 360.19 27.804 360.166 28.46C360.158 28.748 360.158 29.028 360.166 29.3C360.19 29.964 360.35 30.444 360.646 30.74C360.95 31.028 361.342 31.172 361.822 31.172C362.19 31.172 362.498 31.092 362.746 30.932C362.994 30.772 363.19 30.496 363.334 30.104C363.374 30.016 363.414 29.956 363.454 29.924C363.494 29.884 363.554 29.864 363.634 29.864H364.21C364.29 29.864 364.358 29.888 364.414 29.936C364.47 29.984 364.494 30.048 364.486 30.128C364.478 30.296 364.442 30.468 364.378 30.644C364.314 30.82 364.21 31 364.066 31.184C363.93 31.36 363.758 31.52 363.55 31.664C363.342 31.8 363.09 31.912 362.794 32C362.506 32.08 362.178 32.12 361.81 32.12ZM366.199 32C366.119 32 366.051 31.976 365.995 31.928C365.947 31.872 365.923 31.804 365.923 31.724V23.756C365.923 23.676 365.947 23.612 365.995 23.564C366.051 23.508 366.119 23.48 366.199 23.48H366.799C366.887 23.48 366.955 23.508 367.003 23.564C367.051 23.612 367.075 23.676 367.075 23.756V26.552C367.291 26.28 367.555 26.06 367.867 25.892C368.179 25.724 368.575 25.64 369.055 25.64C369.575 25.64 370.015 25.756 370.375 25.988C370.743 26.212 371.019 26.528 371.203 26.936C371.395 27.336 371.491 27.804 371.491 28.34V31.724C371.491 31.804 371.467 31.872 371.419 31.928C371.371 31.976 371.303 32 371.215 32H370.615C370.535 32 370.467 31.976 370.411 31.928C370.363 31.872 370.339 31.804 370.339 31.724V28.4C370.339 27.84 370.203 27.404 369.931 27.092C369.659 26.772 369.259 26.612 368.731 26.612C368.235 26.612 367.835 26.772 367.531 27.092C367.227 27.404 367.075 27.84 367.075 28.4V31.724C367.075 31.804 367.051 31.872 367.003 31.928C366.955 31.976 366.887 32 366.799 32H366.199ZM378.721 32.12C378.113 32.12 377.605 32.004 377.197 31.772C376.789 31.54 376.477 31.22 376.261 30.812C376.045 30.396 375.925 29.924 375.901 29.396C375.893 29.26 375.889 29.088 375.889 28.88C375.889 28.664 375.893 28.492 375.901 28.364C375.925 27.828 376.045 27.356 376.261 26.948C376.485 26.54 376.801 26.22 377.209 25.988C377.617 25.756 378.121 25.64 378.721 25.64C379.321 25.64 379.825 25.756 380.233 25.988C380.641 26.22 380.953 26.54 381.169 26.948C381.393 27.356 381.517 27.828 381.541 28.364C381.549 28.492 381.553 28.664 381.553 28.88C381.553 29.088 381.549 29.26 381.541 29.396C381.517 29.924 381.397 30.396 381.181 30.812C380.965 31.22 380.653 31.54 380.245 31.772C379.837 32.004 379.329 32.12 378.721 32.12ZM378.721 31.196C379.217 31.196 379.613 31.04 379.909 30.728C380.205 30.408 380.365 29.944 380.389 29.336C380.397 29.216 380.401 29.064 380.401 28.88C380.401 28.696 380.397 28.544 380.389 28.424C380.365 27.816 380.205 27.356 379.909 27.044C379.613 26.724 379.217 26.564 378.721 26.564C378.225 26.564 377.825 26.724 377.521 27.044C377.225 27.356 377.069 27.816 377.053 28.424C377.045 28.544 377.041 28.696 377.041 28.88C377.041 29.064 377.045 29.216 377.053 29.336C377.069 29.944 377.225 30.408 377.521 30.728C377.825 31.04 378.225 31.196 378.721 31.196ZM386.14 32.12C385.66 32.12 385.26 32.036 384.94 31.868C384.62 31.692 384.364 31.476 384.172 31.22V31.724C384.172 31.804 384.144 31.872 384.088 31.928C384.04 31.976 383.976 32 383.896 32H383.344C383.264 32 383.196 31.976 383.14 31.928C383.092 31.872 383.068 31.804 383.068 31.724V23.756C383.068 23.676 383.092 23.612 383.14 23.564C383.196 23.508 383.264 23.48 383.344 23.48H383.92C384.008 23.48 384.076 23.508 384.124 23.564C384.172 23.612 384.196 23.676 384.196 23.756V26.516C384.396 26.268 384.652 26.06 384.964 25.892C385.284 25.724 385.676 25.64 386.14 25.64C386.588 25.64 386.968 25.72 387.28 25.88C387.6 26.032 387.86 26.244 388.06 26.516C388.268 26.788 388.424 27.096 388.528 27.44C388.632 27.784 388.688 28.144 388.696 28.52C388.704 28.648 388.708 28.768 388.708 28.88C388.708 28.992 388.704 29.112 388.696 29.24C388.688 29.624 388.632 29.988 388.528 30.332C388.424 30.676 388.268 30.984 388.06 31.256C387.86 31.52 387.6 31.732 387.28 31.892C386.968 32.044 386.588 32.12 386.14 32.12ZM385.888 31.148C386.304 31.148 386.628 31.06 386.86 30.884C387.1 30.7 387.272 30.464 387.376 30.176C387.48 29.88 387.54 29.564 387.556 29.228C387.564 28.996 387.564 28.764 387.556 28.532C387.54 28.196 387.48 27.884 387.376 27.596C387.272 27.3 387.1 27.064 386.86 26.888C386.628 26.704 386.304 26.612 385.888 26.612C385.512 26.612 385.2 26.7 384.952 26.876C384.704 27.052 384.516 27.276 384.388 27.548C384.268 27.82 384.204 28.096 384.196 28.376C384.188 28.504 384.184 28.66 384.184 28.844C384.184 29.02 384.188 29.172 384.196 29.3C384.212 29.596 384.276 29.888 384.388 30.176C384.508 30.456 384.688 30.688 384.928 30.872C385.176 31.056 385.496 31.148 385.888 31.148ZM392.353 32.12C391.905 32.12 391.521 32.064 391.201 31.952C390.881 31.84 390.621 31.704 390.421 31.544C390.221 31.384 390.069 31.224 389.965 31.064C389.869 30.904 389.817 30.776 389.809 30.68C389.801 30.592 389.829 30.524 389.893 30.476C389.957 30.428 390.021 30.404 390.085 30.404H390.613C390.661 30.404 390.697 30.412 390.721 30.428C390.753 30.436 390.793 30.468 390.841 30.524C390.945 30.636 391.061 30.748 391.189 30.86C391.317 30.972 391.473 31.064 391.657 31.136C391.849 31.208 392.085 31.244 392.365 31.244C392.773 31.244 393.109 31.168 393.373 31.016C393.637 30.856 393.769 30.624 393.769 30.32C393.769 30.12 393.713 29.96 393.601 29.84C393.497 29.72 393.305 29.612 393.025 29.516C392.753 29.42 392.377 29.32 391.897 29.216C391.417 29.104 391.037 28.968 390.757 28.808C390.477 28.64 390.277 28.444 390.157 28.22C390.037 27.988 389.977 27.728 389.977 27.44C389.977 27.144 390.065 26.86 390.241 26.588C390.417 26.308 390.673 26.08 391.009 25.904C391.353 25.728 391.781 25.64 392.293 25.64C392.709 25.64 393.065 25.692 393.361 25.796C393.657 25.9 393.901 26.032 394.093 26.192C394.285 26.344 394.429 26.496 394.525 26.648C394.621 26.8 394.673 26.928 394.681 27.032C394.689 27.112 394.665 27.18 394.609 27.236C394.553 27.284 394.489 27.308 394.417 27.308H393.913C393.857 27.308 393.809 27.296 393.769 27.272C393.737 27.248 393.705 27.22 393.673 27.188C393.593 27.084 393.497 26.98 393.385 26.876C393.281 26.772 393.141 26.688 392.965 26.624C392.797 26.552 392.573 26.516 392.293 26.516C391.893 26.516 391.593 26.6 391.393 26.768C391.193 26.936 391.093 27.148 391.093 27.404C391.093 27.556 391.137 27.692 391.225 27.812C391.313 27.932 391.481 28.04 391.729 28.136C391.977 28.232 392.345 28.336 392.833 28.448C393.361 28.552 393.777 28.692 394.081 28.868C394.385 29.044 394.601 29.248 394.729 29.48C394.857 29.712 394.921 29.98 394.921 30.284C394.921 30.62 394.821 30.928 394.621 31.208C394.429 31.488 394.141 31.712 393.757 31.88C393.381 32.04 392.913 32.12 392.353 32.12ZM398.794 32.12C397.97 32.12 397.314 31.868 396.826 31.364C396.338 30.852 396.07 30.156 396.022 29.276C396.014 29.172 396.01 29.04 396.01 28.88C396.01 28.712 396.014 28.576 396.022 28.472C396.054 27.904 396.186 27.408 396.418 26.984C396.65 26.552 396.966 26.22 397.366 25.988C397.774 25.756 398.25 25.64 398.794 25.64C399.402 25.64 399.91 25.768 400.318 26.024C400.734 26.28 401.05 26.644 401.266 27.116C401.482 27.588 401.59 28.14 401.59 28.772V28.976C401.59 29.064 401.562 29.132 401.506 29.18C401.458 29.228 401.394 29.252 401.314 29.252H397.162C397.162 29.26 397.162 29.276 397.162 29.3C397.162 29.324 397.162 29.344 397.162 29.36C397.178 29.688 397.25 29.996 397.378 30.284C397.506 30.564 397.69 30.792 397.93 30.968C398.17 31.144 398.458 31.232 398.794 31.232C399.082 31.232 399.322 31.188 399.514 31.1C399.706 31.012 399.862 30.916 399.982 30.812C400.102 30.7 400.182 30.616 400.222 30.56C400.294 30.456 400.35 30.396 400.39 30.38C400.43 30.356 400.494 30.344 400.582 30.344H401.158C401.238 30.344 401.302 30.368 401.35 30.416C401.406 30.456 401.43 30.516 401.422 30.596C401.414 30.716 401.35 30.864 401.23 31.04C401.11 31.208 400.938 31.376 400.714 31.544C400.49 31.712 400.218 31.852 399.898 31.964C399.578 32.068 399.21 32.12 398.794 32.12ZM397.162 28.424H400.45V28.388C400.45 28.028 400.382 27.708 400.246 27.428C400.118 27.148 399.93 26.928 399.682 26.768C399.434 26.6 399.138 26.516 398.794 26.516C398.45 26.516 398.154 26.6 397.906 26.768C397.666 26.928 397.482 27.148 397.354 27.428C397.226 27.708 397.162 28.028 397.162 28.388V28.424ZM403.301 32C403.221 32 403.153 31.976 403.097 31.928C403.049 31.872 403.025 31.804 403.025 31.724V26.048C403.025 25.968 403.049 25.9 403.097 25.844C403.153 25.788 403.221 25.76 403.301 25.76H403.853C403.933 25.76 404.001 25.788 404.057 25.844C404.113 25.9 404.141 25.968 404.141 26.048V26.576C404.301 26.304 404.521 26.1 404.801 25.964C405.081 25.828 405.417 25.76 405.809 25.76H406.289C406.369 25.76 406.433 25.788 406.481 25.844C406.529 25.892 406.553 25.956 406.553 26.036V26.528C406.553 26.608 406.529 26.672 406.481 26.72C406.433 26.768 406.369 26.792 406.289 26.792H405.569C405.137 26.792 404.797 26.92 404.549 27.176C404.301 27.424 404.177 27.764 404.177 28.196V31.724C404.177 31.804 404.149 31.872 404.093 31.928C404.037 31.976 403.969 32 403.889 32H403.301ZM409.755 32C409.635 32 409.539 31.972 409.467 31.916C409.403 31.86 409.351 31.788 409.311 31.7L407.091 26.132C407.075 26.092 407.067 26.052 407.067 26.012C407.067 25.94 407.091 25.88 407.139 25.832C407.187 25.784 407.247 25.76 407.319 25.76H407.895C407.983 25.76 408.051 25.784 408.099 25.832C408.147 25.88 408.175 25.924 408.183 25.964L410.019 30.692L411.843 25.964C411.859 25.924 411.887 25.88 411.927 25.832C411.975 25.784 412.043 25.76 412.131 25.76H412.719C412.783 25.76 412.839 25.784 412.887 25.832C412.943 25.88 412.971 25.94 412.971 26.012C412.971 26.052 412.963 26.092 412.947 26.132L410.715 31.7C410.683 31.788 410.631 31.86 410.559 31.916C410.495 31.972 410.399 32 410.271 32H409.755ZM415.733 32.12C415.333 32.12 414.969 32.04 414.641 31.88C414.313 31.72 414.049 31.504 413.849 31.232C413.649 30.96 413.549 30.652 413.549 30.308C413.549 29.756 413.773 29.316 414.221 28.988C414.669 28.66 415.253 28.444 415.973 28.34L417.761 28.088V27.74C417.761 27.356 417.649 27.056 417.425 26.84C417.209 26.624 416.853 26.516 416.357 26.516C415.997 26.516 415.705 26.588 415.481 26.732C415.265 26.876 415.113 27.06 415.025 27.284C414.977 27.404 414.893 27.464 414.773 27.464H414.233C414.145 27.464 414.077 27.44 414.029 27.392C413.989 27.336 413.969 27.272 413.969 27.2C413.969 27.08 414.013 26.932 414.101 26.756C414.197 26.58 414.341 26.408 414.533 26.24C414.725 26.072 414.969 25.932 415.265 25.82C415.569 25.7 415.937 25.64 416.369 25.64C416.849 25.64 417.253 25.704 417.581 25.832C417.909 25.952 418.165 26.116 418.349 26.324C418.541 26.532 418.677 26.768 418.757 27.032C418.845 27.296 418.889 27.564 418.889 27.836V31.724C418.889 31.804 418.861 31.872 418.805 31.928C418.757 31.976 418.693 32 418.613 32H418.061C417.973 32 417.905 31.976 417.857 31.928C417.809 31.872 417.785 31.804 417.785 31.724V31.208C417.681 31.352 417.541 31.496 417.365 31.64C417.189 31.776 416.969 31.892 416.705 31.988C416.441 32.076 416.117 32.12 415.733 32.12ZM415.985 31.22C416.313 31.22 416.613 31.152 416.885 31.016C417.157 30.872 417.369 30.652 417.521 30.356C417.681 30.06 417.761 29.688 417.761 29.24V28.904L416.369 29.108C415.801 29.188 415.373 29.324 415.085 29.516C414.797 29.7 414.653 29.936 414.653 30.224C414.653 30.448 414.717 30.636 414.845 30.788C414.981 30.932 415.149 31.04 415.349 31.112C415.557 31.184 415.769 31.22 415.985 31.22ZM422.992 32C422.544 32 422.18 31.916 421.9 31.748C421.62 31.572 421.416 31.328 421.288 31.016C421.16 30.696 421.096 30.32 421.096 29.888V26.72H420.16C420.08 26.72 420.012 26.696 419.956 26.648C419.908 26.592 419.884 26.524 419.884 26.444V26.036C419.884 25.956 419.908 25.892 419.956 25.844C420.012 25.788 420.08 25.76 420.16 25.76H421.096V23.756C421.096 23.676 421.12 23.612 421.168 23.564C421.224 23.508 421.292 23.48 421.372 23.48H421.936C422.016 23.48 422.08 23.508 422.128 23.564C422.184 23.612 422.212 23.676 422.212 23.756V25.76H423.7C423.78 25.76 423.844 25.788 423.892 25.844C423.948 25.892 423.976 25.956 423.976 26.036V26.444C423.976 26.524 423.948 26.592 423.892 26.648C423.844 26.696 423.78 26.72 423.7 26.72H422.212V29.804C422.212 30.18 422.276 30.476 422.404 30.692C422.532 30.908 422.76 31.016 423.088 31.016H423.82C423.9 31.016 423.964 31.044 424.012 31.1C424.068 31.148 424.096 31.212 424.096 31.292V31.724C424.096 31.804 424.068 31.872 424.012 31.928C423.964 31.976 423.9 32 423.82 32H422.992ZM425.519 32C425.439 32 425.371 31.976 425.315 31.928C425.267 31.872 425.243 31.804 425.243 31.724V26.036C425.243 25.956 425.267 25.892 425.315 25.844C425.371 25.788 425.439 25.76 425.519 25.76H426.095C426.175 25.76 426.239 25.788 426.287 25.844C426.335 25.892 426.359 25.956 426.359 26.036V31.724C426.359 31.804 426.335 31.872 426.287 31.928C426.239 31.976 426.175 32 426.095 32H425.519ZM425.423 24.596C425.343 24.596 425.275 24.572 425.219 24.524C425.171 24.468 425.147 24.4 425.147 24.32V23.672C425.147 23.592 425.171 23.528 425.219 23.48C425.275 23.424 425.343 23.396 425.423 23.396H426.179C426.259 23.396 426.323 23.424 426.371 23.48C426.427 23.528 426.455 23.592 426.455 23.672V24.32C426.455 24.4 426.427 24.468 426.371 24.524C426.323 24.572 426.259 24.596 426.179 24.596H425.423ZM430.706 32.12C430.098 32.12 429.59 32.004 429.182 31.772C428.774 31.54 428.462 31.22 428.246 30.812C428.03 30.396 427.91 29.924 427.886 29.396C427.878 29.26 427.874 29.088 427.874 28.88C427.874 28.664 427.878 28.492 427.886 28.364C427.91 27.828 428.03 27.356 428.246 26.948C428.47 26.54 428.786 26.22 429.194 25.988C429.602 25.756 430.106 25.64 430.706 25.64C431.306 25.64 431.81 25.756 432.218 25.988C432.626 26.22 432.938 26.54 433.154 26.948C433.378 27.356 433.502 27.828 433.526 28.364C433.534 28.492 433.538 28.664 433.538 28.88C433.538 29.088 433.534 29.26 433.526 29.396C433.502 29.924 433.382 30.396 433.166 30.812C432.95 31.22 432.638 31.54 432.23 31.772C431.822 32.004 431.314 32.12 430.706 32.12ZM430.706 31.196C431.202 31.196 431.598 31.04 431.894 30.728C432.19 30.408 432.35 29.944 432.374 29.336C432.382 29.216 432.386 29.064 432.386 28.88C432.386 28.696 432.382 28.544 432.374 28.424C432.35 27.816 432.19 27.356 431.894 27.044C431.598 26.724 431.202 26.564 430.706 26.564C430.21 26.564 429.81 26.724 429.506 27.044C429.21 27.356 429.054 27.816 429.038 28.424C429.03 28.544 429.026 28.696 429.026 28.88C429.026 29.064 429.03 29.216 429.038 29.336C429.054 29.944 429.21 30.408 429.506 30.728C429.81 31.04 430.21 31.196 430.706 31.196ZM435.316 32C435.236 32 435.168 31.976 435.112 31.928C435.064 31.872 435.04 31.804 435.04 31.724V26.036C435.04 25.956 435.064 25.892 435.112 25.844C435.168 25.788 435.236 25.76 435.316 25.76H435.88C435.96 25.76 436.024 25.788 436.072 25.844C436.128 25.892 436.156 25.956 436.156 26.036V26.564C436.364 26.292 436.624 26.072 436.936 25.904C437.256 25.728 437.664 25.64 438.16 25.64C438.68 25.64 439.12 25.756 439.48 25.988C439.848 26.212 440.124 26.528 440.308 26.936C440.492 27.336 440.584 27.804 440.584 28.34V31.724C440.584 31.804 440.56 31.872 440.512 31.928C440.464 31.976 440.4 32 440.32 32H439.72C439.64 32 439.572 31.976 439.516 31.928C439.468 31.872 439.444 31.804 439.444 31.724V28.4C439.444 27.84 439.308 27.404 439.036 27.092C438.764 26.772 438.364 26.612 437.836 26.612C437.34 26.612 436.94 26.772 436.636 27.092C436.34 27.404 436.192 27.84 436.192 28.4V31.724C436.192 31.804 436.164 31.872 436.108 31.928C436.06 31.976 435.996 32 435.916 32H435.316ZM445.547 32C445.467 32 445.399 31.976 445.343 31.928C445.295 31.872 445.271 31.804 445.271 31.724V23.756C445.271 23.676 445.295 23.612 445.343 23.564C445.399 23.508 445.467 23.48 445.547 23.48H446.111C446.199 23.48 446.267 23.508 446.315 23.564C446.363 23.612 446.387 23.676 446.387 23.756V31.724C446.387 31.804 446.363 31.872 446.315 31.928C446.267 31.976 446.199 32 446.111 32H445.547ZM450.733 32.12C450.125 32.12 449.617 32.004 449.209 31.772C448.801 31.54 448.489 31.22 448.273 30.812C448.057 30.396 447.937 29.924 447.913 29.396C447.905 29.26 447.901 29.088 447.901 28.88C447.901 28.664 447.905 28.492 447.913 28.364C447.937 27.828 448.057 27.356 448.273 26.948C448.497 26.54 448.813 26.22 449.221 25.988C449.629 25.756 450.133 25.64 450.733 25.64C451.333 25.64 451.837 25.756 452.245 25.988C452.653 26.22 452.965 26.54 453.181 26.948C453.405 27.356 453.529 27.828 453.553 28.364C453.561 28.492 453.565 28.664 453.565 28.88C453.565 29.088 453.561 29.26 453.553 29.396C453.529 29.924 453.409 30.396 453.193 30.812C452.977 31.22 452.665 31.54 452.257 31.772C451.849 32.004 451.341 32.12 450.733 32.12ZM450.733 31.196C451.229 31.196 451.625 31.04 451.921 30.728C452.217 30.408 452.377 29.944 452.401 29.336C452.409 29.216 452.413 29.064 452.413 28.88C452.413 28.696 452.409 28.544 452.401 28.424C452.377 27.816 452.217 27.356 451.921 27.044C451.625 26.724 451.229 26.564 450.733 26.564C450.237 26.564 449.837 26.724 449.533 27.044C449.237 27.356 449.081 27.816 449.065 28.424C449.057 28.544 449.053 28.696 449.053 28.88C449.053 29.064 449.057 29.216 449.065 29.336C449.081 29.944 449.237 30.408 449.533 30.728C449.837 31.04 450.237 31.196 450.733 31.196ZM457.624 34.64C457.08 34.64 456.632 34.568 456.28 34.424C455.936 34.28 455.664 34.104 455.464 33.896C455.272 33.696 455.132 33.492 455.044 33.284C454.964 33.084 454.92 32.924 454.912 32.804C454.904 32.724 454.928 32.656 454.984 32.6C455.048 32.544 455.116 32.516 455.188 32.516H455.764C455.836 32.516 455.896 32.532 455.944 32.564C455.992 32.596 456.032 32.664 456.064 32.768C456.112 32.888 456.184 33.02 456.28 33.164C456.376 33.316 456.524 33.444 456.724 33.548C456.924 33.66 457.204 33.716 457.564 33.716C457.94 33.716 458.256 33.664 458.512 33.56C458.768 33.464 458.96 33.288 459.088 33.032C459.224 32.784 459.292 32.44 459.292 32V31.184C459.1 31.432 458.848 31.64 458.536 31.808C458.224 31.968 457.832 32.048 457.36 32.048C456.912 32.048 456.528 31.972 456.208 31.82C455.888 31.66 455.624 31.448 455.416 31.184C455.216 30.912 455.064 30.604 454.96 30.26C454.864 29.916 454.808 29.556 454.792 29.18C454.784 28.956 454.784 28.736 454.792 28.52C454.808 28.144 454.864 27.784 454.96 27.44C455.064 27.096 455.216 26.788 455.416 26.516C455.624 26.244 455.888 26.032 456.208 25.88C456.528 25.72 456.912 25.64 457.36 25.64C457.84 25.64 458.236 25.732 458.548 25.916C458.868 26.092 459.128 26.308 459.328 26.564V26.048C459.328 25.968 459.352 25.9 459.4 25.844C459.456 25.788 459.524 25.76 459.604 25.76H460.156C460.236 25.76 460.304 25.788 460.36 25.844C460.416 25.9 460.444 25.968 460.444 26.048V31.868C460.444 32.404 460.352 32.88 460.168 33.296C459.992 33.712 459.696 34.04 459.28 34.28C458.872 34.52 458.32 34.64 457.624 34.64ZM457.6 31.088C458 31.088 458.32 30.996 458.56 30.812C458.808 30.628 458.988 30.396 459.1 30.116C459.22 29.836 459.284 29.552 459.292 29.264C459.3 29.152 459.304 29.016 459.304 28.856C459.304 28.688 459.3 28.548 459.292 28.436C459.284 28.148 459.22 27.864 459.1 27.584C458.988 27.304 458.808 27.072 458.56 26.888C458.32 26.704 458 26.612 457.6 26.612C457.2 26.612 456.88 26.704 456.64 26.888C456.4 27.064 456.228 27.3 456.124 27.596C456.02 27.884 455.96 28.196 455.944 28.532C455.936 28.74 455.936 28.952 455.944 29.168C455.96 29.504 456.02 29.82 456.124 30.116C456.228 30.404 456.4 30.64 456.64 30.824C456.88 31 457.2 31.088 457.6 31.088ZM462.42 32C462.34 32 462.272 31.976 462.216 31.928C462.168 31.872 462.144 31.804 462.144 31.724V30.86C462.144 30.78 462.168 30.716 462.216 30.668C462.272 30.612 462.34 30.584 462.42 30.584H463.284C463.364 30.584 463.428 30.612 463.476 30.668C463.532 30.716 463.56 30.78 463.56 30.86V31.724C463.56 31.804 463.532 31.872 463.476 31.928C463.428 31.976 463.364 32 463.284 32H462.42ZM471.517 32.12C470.845 32.12 470.265 32 469.777 31.76C469.297 31.52 468.925 31.156 468.661 30.668C468.405 30.172 468.277 29.536 468.277 28.76V23.888C468.277 23.8 468.301 23.732 468.349 23.684C468.397 23.628 468.465 23.6 468.553 23.6H469.165C469.253 23.6 469.321 23.628 469.369 23.684C469.425 23.732 469.453 23.8 469.453 23.888V28.784C469.453 29.568 469.637 30.148 470.005 30.524C470.373 30.9 470.877 31.088 471.517 31.088C472.149 31.088 472.649 30.9 473.017 30.524C473.393 30.148 473.581 29.568 473.581 28.784V23.888C473.581 23.8 473.605 23.732 473.653 23.684C473.709 23.628 473.777 23.6 473.857 23.6H474.481C474.561 23.6 474.625 23.628 474.673 23.684C474.729 23.732 474.757 23.8 474.757 23.888V28.76C474.757 29.536 474.625 30.172 474.361 30.668C474.105 31.156 473.737 31.52 473.257 31.76C472.777 32 472.197 32.12 471.517 32.12ZM478.72 32.12C478.272 32.12 477.888 32.064 477.568 31.952C477.248 31.84 476.988 31.704 476.788 31.544C476.588 31.384 476.436 31.224 476.332 31.064C476.236 30.904 476.184 30.776 476.176 30.68C476.168 30.592 476.196 30.524 476.26 30.476C476.324 30.428 476.388 30.404 476.452 30.404H476.98C477.028 30.404 477.064 30.412 477.088 30.428C477.12 30.436 477.16 30.468 477.208 30.524C477.312 30.636 477.428 30.748 477.556 30.86C477.684 30.972 477.84 31.064 478.024 31.136C478.216 31.208 478.452 31.244 478.732 31.244C479.14 31.244 479.476 31.168 479.74 31.016C480.004 30.856 480.136 30.624 480.136 30.32C480.136 30.12 480.08 29.96 479.968 29.84C479.864 29.72 479.672 29.612 479.392 29.516C479.12 29.42 478.744 29.32 478.264 29.216C477.784 29.104 477.404 28.968 477.124 28.808C476.844 28.64 476.644 28.444 476.524 28.22C476.404 27.988 476.344 27.728 476.344 27.44C476.344 27.144 476.432 26.86 476.608 26.588C476.784 26.308 477.04 26.08 477.376 25.904C477.72 25.728 478.148 25.64 478.66 25.64C479.076 25.64 479.432 25.692 479.728 25.796C480.024 25.9 480.268 26.032 480.46 26.192C480.652 26.344 480.796 26.496 480.892 26.648C480.988 26.8 481.04 26.928 481.048 27.032C481.056 27.112 481.032 27.18 480.976 27.236C480.92 27.284 480.856 27.308 480.784 27.308H480.28C480.224 27.308 480.176 27.296 480.136 27.272C480.104 27.248 480.072 27.22 480.04 27.188C479.96 27.084 479.864 26.98 479.752 26.876C479.648 26.772 479.508 26.688 479.332 26.624C479.164 26.552 478.94 26.516 478.66 26.516C478.26 26.516 477.96 26.6 477.76 26.768C477.56 26.936 477.46 27.148 477.46 27.404C477.46 27.556 477.504 27.692 477.592 27.812C477.68 27.932 477.848 28.04 478.096 28.136C478.344 28.232 478.712 28.336 479.2 28.448C479.728 28.552 480.144 28.692 480.448 28.868C480.752 29.044 480.968 29.248 481.096 29.48C481.224 29.712 481.288 29.98 481.288 30.284C481.288 30.62 481.188 30.928 480.988 31.208C480.796 31.488 480.508 31.712 480.124 31.88C479.748 32.04 479.28 32.12 478.72 32.12ZM485.161 32.12C484.337 32.12 483.681 31.868 483.193 31.364C482.705 30.852 482.437 30.156 482.389 29.276C482.381 29.172 482.377 29.04 482.377 28.88C482.377 28.712 482.381 28.576 482.389 28.472C482.421 27.904 482.553 27.408 482.785 26.984C483.017 26.552 483.333 26.22 483.733 25.988C484.141 25.756 484.617 25.64 485.161 25.64C485.769 25.64 486.277 25.768 486.685 26.024C487.101 26.28 487.417 26.644 487.633 27.116C487.849 27.588 487.957 28.14 487.957 28.772V28.976C487.957 29.064 487.929 29.132 487.873 29.18C487.825 29.228 487.761 29.252 487.681 29.252H483.529C483.529 29.26 483.529 29.276 483.529 29.3C483.529 29.324 483.529 29.344 483.529 29.36C483.545 29.688 483.617 29.996 483.745 30.284C483.873 30.564 484.057 30.792 484.297 30.968C484.537 31.144 484.825 31.232 485.161 31.232C485.449 31.232 485.689 31.188 485.881 31.1C486.073 31.012 486.229 30.916 486.349 30.812C486.469 30.7 486.549 30.616 486.589 30.56C486.661 30.456 486.717 30.396 486.757 30.38C486.797 30.356 486.861 30.344 486.949 30.344H487.525C487.605 30.344 487.669 30.368 487.717 30.416C487.773 30.456 487.797 30.516 487.789 30.596C487.781 30.716 487.717 30.864 487.597 31.04C487.477 31.208 487.305 31.376 487.081 31.544C486.857 31.712 486.585 31.852 486.265 31.964C485.945 32.068 485.577 32.12 485.161 32.12ZM483.529 28.424H486.817V28.388C486.817 28.028 486.749 27.708 486.613 27.428C486.485 27.148 486.297 26.928 486.049 26.768C485.801 26.6 485.505 26.516 485.161 26.516C484.817 26.516 484.521 26.6 484.273 26.768C484.033 26.928 483.849 27.148 483.721 27.428C483.593 27.708 483.529 28.028 483.529 28.388V28.424ZM489.668 32C489.588 32 489.52 31.976 489.464 31.928C489.416 31.872 489.392 31.804 489.392 31.724V26.048C489.392 25.968 489.416 25.9 489.464 25.844C489.52 25.788 489.588 25.76 489.668 25.76H490.22C490.3 25.76 490.368 25.788 490.424 25.844C490.48 25.9 490.508 25.968 490.508 26.048V26.576C490.668 26.304 490.888 26.1 491.168 25.964C491.448 25.828 491.784 25.76 492.176 25.76H492.656C492.736 25.76 492.8 25.788 492.848 25.844C492.896 25.892 492.92 25.956 492.92 26.036V26.528C492.92 26.608 492.896 26.672 492.848 26.72C492.8 26.768 492.736 26.792 492.656 26.792H491.936C491.504 26.792 491.164 26.92 490.916 27.176C490.668 27.424 490.544 27.764 490.544 28.196V31.724C490.544 31.804 490.516 31.872 490.46 31.928C490.404 31.976 490.336 32 490.256 32H489.668ZM497.799 31.532C497.727 31.532 497.667 31.508 497.619 31.46C497.571 31.412 497.551 31.352 497.559 31.28L497.775 29.828H496.587C496.507 29.828 496.443 29.804 496.395 29.756C496.347 29.708 496.323 29.644 496.323 29.564V29.156C496.323 29.076 496.347 29.012 496.395 28.964C496.443 28.916 496.507 28.892 496.587 28.892H497.919L498.231 26.78H496.899C496.819 26.78 496.755 26.756 496.707 26.708C496.659 26.66 496.635 26.596 496.635 26.516V26.108C496.635 26.028 496.659 25.964 496.707 25.916C496.755 25.868 496.819 25.844 496.899 25.844H498.375L498.591 24.392C498.607 24.328 498.635 24.272 498.675 24.224C498.715 24.168 498.775 24.14 498.855 24.14H499.299C499.371 24.14 499.431 24.164 499.479 24.212C499.527 24.26 499.547 24.32 499.539 24.392L499.323 25.844H501.099L501.315 24.392C501.331 24.328 501.359 24.272 501.399 24.224C501.439 24.168 501.499 24.14 501.579 24.14H502.023C502.095 24.14 502.155 24.164 502.203 24.212C502.251 24.26 502.271 24.32 502.263 24.392L502.047 25.844H503.211C503.291 25.844 503.355 25.868 503.403 25.916C503.459 25.964 503.487 26.028 503.487 26.108V26.516C503.487 26.596 503.459 26.66 503.403 26.708C503.355 26.756 503.291 26.78 503.211 26.78H501.915L501.603 28.892H502.899C502.979 28.892 503.043 28.916 503.091 28.964C503.147 29.012 503.175 29.076 503.175 29.156V29.564C503.175 29.644 503.147 29.708 503.091 29.756C503.043 29.804 502.979 29.828 502.899 29.828H501.459L501.243 31.28C501.219 31.448 501.127 31.532 500.967 31.532H500.523C500.451 31.532 500.391 31.508 500.343 31.46C500.295 31.412 500.275 31.352 500.283 31.28L500.499 29.828H498.735L498.519 31.28C498.495 31.448 498.403 31.532 498.243 31.532H497.799ZM498.879 28.892H500.643L500.955 26.78H499.191L498.879 28.892ZM504.954 32C504.874 32 504.806 31.976 504.75 31.928C504.702 31.872 504.678 31.804 504.678 31.724V31.34C504.678 31.268 504.698 31.188 504.738 31.1C504.778 31.012 504.858 30.916 504.978 30.812L507.522 28.268C507.93 27.924 508.25 27.632 508.482 27.392C508.722 27.144 508.89 26.908 508.986 26.684C509.09 26.46 509.142 26.228 509.142 25.988C509.142 25.532 509.014 25.172 508.758 24.908C508.502 24.636 508.122 24.5 507.618 24.5C507.298 24.5 507.022 24.568 506.79 24.704C506.558 24.832 506.374 25.012 506.238 25.244C506.11 25.468 506.026 25.724 505.986 26.012C505.97 26.116 505.926 26.188 505.854 26.228C505.79 26.268 505.73 26.288 505.674 26.288H505.05C504.978 26.288 504.918 26.268 504.87 26.228C504.822 26.18 504.798 26.124 504.798 26.06C504.806 25.756 504.87 25.452 504.99 25.148C505.11 24.836 505.286 24.556 505.518 24.308C505.758 24.06 506.05 23.86 506.394 23.708C506.746 23.548 507.154 23.468 507.618 23.468C508.25 23.468 508.766 23.584 509.166 23.816C509.574 24.04 509.874 24.34 510.066 24.716C510.258 25.092 510.354 25.504 510.354 25.952C510.354 26.304 510.294 26.628 510.174 26.924C510.054 27.212 509.878 27.496 509.646 27.776C509.422 28.048 509.142 28.328 508.806 28.616L506.502 30.956H510.246C510.334 30.956 510.402 30.98 510.45 31.028C510.506 31.076 510.534 31.144 510.534 31.232V31.724C510.534 31.804 510.506 31.872 510.45 31.928C510.402 31.976 510.334 32 510.246 32H504.954Z" fill="black" fill-opacity="0.55"/>
<foreignObject x="220" y="-54" width="440" height="232"><div xmlns="http://www.w3.org/1999/xhtml" style="backdrop-filter:blur(50px);clip-path:url(#bgblur_7_50251_4226_clip_path);height:100%;width:100%"></div></foreignObject><g filter="url(#filter4_i_50251_4226)" data-figma-bg-blur-radius="100">
<rect x="320" y="46" width="240" height="32" rx="10" fill="black" fill-opacity="0.01"/>
<foreignObject x="220.074" y="-54" width="427" height="232"><div xmlns="http://www.w3.org/1999/xhtml" style="backdrop-filter:blur(50px);clip-path:url(#bgblur_8_50251_4226_clip_path);height:100%;width:100%"></div></foreignObject><g filter="url(#filter5_i_50251_4226)" data-figma-bg-blur-radius="100">
<path d="M320.074 54C320.074 49.5817 323.656 46 328.074 46H539.074C543.492 46 547.074 49.5817 547.074 54V70C547.074 74.4183 543.492 78 539.074 78H328.074C323.656 78 320.074 74.4183 320.074 70V54Z" fill="url(#paint14_linear_50251_4226)" fill-opacity="0.8"/>
<path d="M328.074 46.75H539.074C543.078 46.75 546.324 49.9959 546.324 54V70C546.324 74.0041 543.078 77.25 539.074 77.25H328.074C324.07 77.25 320.824 74.0041 320.824 70V54C320.824 49.9959 324.07 46.75 328.074 46.75Z" stroke="url(#paint15_linear_50251_4226)" stroke-opacity="0.25" stroke-width="1.5"/>
<path opacity="0.5" d="M333.423 66C333.335 66 333.263 65.972 333.207 65.916C333.151 65.86 333.123 65.788 333.123 65.7V59.268H330.939C330.859 59.268 330.791 59.24 330.735 59.184C330.679 59.128 330.651 59.06 330.651 58.98V57.9C330.651 57.812 330.679 57.74 330.735 57.684C330.791 57.628 330.859 57.6 330.939 57.6H337.227C337.315 57.6 337.387 57.628 337.443 57.684C337.499 57.74 337.527 57.812 337.527 57.9V58.98C337.527 59.06 337.499 59.128 337.443 59.184C337.387 59.24 337.315 59.268 337.227 59.268H335.055V65.7C335.055 65.788 335.027 65.86 334.971 65.916C334.915 65.972 334.843 66 334.755 66H333.423ZM339.319 66.12C338.895 66.12 338.515 66.04 338.179 65.88C337.843 65.712 337.575 65.488 337.375 65.208C337.175 64.928 337.075 64.616 337.075 64.272C337.075 63.704 337.303 63.256 337.759 62.928C338.223 62.6 338.831 62.376 339.583 62.256L341.155 62.028V61.812C341.155 61.5 341.083 61.26 340.939 61.092C340.795 60.924 340.543 60.84 340.183 60.84C339.919 60.84 339.707 60.892 339.547 60.996C339.387 61.1 339.263 61.236 339.175 61.404C339.111 61.508 339.019 61.56 338.899 61.56H337.759C337.671 61.56 337.603 61.536 337.555 61.488C337.507 61.432 337.487 61.368 337.495 61.296C337.495 61.16 337.547 61 337.651 60.816C337.755 60.632 337.915 60.452 338.131 60.276C338.347 60.092 338.623 59.94 338.959 59.82C339.295 59.7 339.707 59.64 340.195 59.64C340.699 59.64 341.131 59.7 341.491 59.82C341.851 59.94 342.139 60.108 342.355 60.324C342.571 60.54 342.731 60.792 342.835 61.08C342.939 61.36 342.991 61.664 342.991 61.992V65.7C342.991 65.788 342.963 65.86 342.907 65.916C342.851 65.972 342.779 66 342.691 66H341.515C341.435 66 341.367 65.972 341.311 65.916C341.255 65.86 341.227 65.788 341.227 65.7V65.256C341.123 65.408 340.983 65.552 340.807 65.688C340.631 65.816 340.419 65.92 340.171 66C339.931 66.08 339.647 66.12 339.319 66.12ZM339.799 64.872C340.063 64.872 340.299 64.816 340.507 64.704C340.715 64.592 340.879 64.42 340.999 64.188C341.119 63.956 341.179 63.664 341.179 63.312V63.108L340.063 63.288C339.631 63.36 339.315 63.468 339.115 63.612C338.915 63.756 338.815 63.932 338.815 64.14C338.815 64.292 338.859 64.424 338.947 64.536C339.043 64.648 339.167 64.732 339.319 64.788C339.471 64.844 339.631 64.872 339.799 64.872ZM346.904 66.12C346.408 66.12 345.98 66.064 345.62 65.952C345.268 65.832 344.98 65.688 344.756 65.52C344.54 65.352 344.376 65.184 344.264 65.016C344.16 64.84 344.104 64.692 344.096 64.572C344.088 64.484 344.116 64.412 344.18 64.356C344.244 64.3 344.308 64.272 344.372 64.272H345.536C345.56 64.272 345.584 64.276 345.608 64.284C345.632 64.292 345.656 64.312 345.68 64.344C345.784 64.416 345.892 64.5 346.004 64.596C346.116 64.684 346.244 64.76 346.388 64.824C346.54 64.888 346.728 64.92 346.952 64.92C347.216 64.92 347.44 64.868 347.624 64.764C347.808 64.652 347.9 64.496 347.9 64.296C347.9 64.152 347.856 64.032 347.768 63.936C347.688 63.84 347.532 63.752 347.3 63.672C347.068 63.592 346.724 63.504 346.268 63.408C345.836 63.312 345.468 63.184 345.164 63.024C344.86 62.864 344.632 62.664 344.479 62.424C344.328 62.176 344.252 61.88 344.252 61.536C344.252 61.224 344.348 60.924 344.54 60.636C344.74 60.348 345.032 60.112 345.416 59.928C345.8 59.736 346.28 59.64 346.855 59.64C347.296 59.64 347.68 59.696 348.008 59.808C348.344 59.912 348.624 60.048 348.848 60.216C349.072 60.376 349.24 60.544 349.352 60.72C349.472 60.888 349.536 61.036 349.544 61.164C349.552 61.244 349.528 61.312 349.472 61.368C349.416 61.424 349.352 61.452 349.28 61.452H348.212C348.172 61.452 348.136 61.448 348.104 61.44C348.072 61.424 348.044 61.404 348.02 61.38C347.924 61.316 347.824 61.244 347.72 61.164C347.624 61.076 347.508 61 347.372 60.936C347.236 60.872 347.06 60.84 346.844 60.84C346.58 60.84 346.376 60.9 346.232 61.02C346.096 61.132 346.028 61.276 346.028 61.452C346.028 61.564 346.064 61.668 346.136 61.764C346.208 61.86 346.356 61.948 346.58 62.028C346.804 62.108 347.144 62.192 347.6 62.28C348.144 62.376 348.576 62.52 348.896 62.712C349.216 62.904 349.444 63.128 349.58 63.384C349.724 63.632 349.796 63.9 349.796 64.188C349.796 64.564 349.684 64.9 349.46 65.196C349.236 65.484 348.908 65.712 348.476 65.88C348.052 66.04 347.528 66.12 346.904 66.12ZM351.247 66C351.159 66 351.087 65.972 351.031 65.916C350.975 65.86 350.947 65.788 350.947 65.7V57.78C350.947 57.692 350.975 57.62 351.031 57.564C351.087 57.508 351.159 57.48 351.247 57.48H352.423C352.503 57.48 352.571 57.508 352.627 57.564C352.683 57.62 352.711 57.692 352.711 57.78V61.836L354.559 59.964C354.623 59.908 354.679 59.86 354.727 59.82C354.783 59.78 354.867 59.76 354.979 59.76H356.335C356.415 59.76 356.479 59.788 356.527 59.844C356.575 59.892 356.599 59.952 356.599 60.024C356.599 60.056 356.591 60.092 356.575 60.132C356.559 60.172 356.531 60.204 356.491 60.228L354.175 62.556L356.791 65.544C356.863 65.608 356.899 65.672 356.899 65.736C356.899 65.808 356.871 65.872 356.815 65.928C356.767 65.976 356.707 66 356.635 66H355.243C355.123 66 355.035 65.98 354.979 65.94C354.931 65.9 354.875 65.852 354.811 65.796L352.711 63.444V65.7C352.711 65.788 352.683 65.86 352.627 65.916C352.571 65.972 352.503 66 352.423 66H351.247ZM360.634 66C360.546 66 360.474 65.972 360.418 65.916C360.362 65.86 360.334 65.788 360.334 65.7V57.78C360.334 57.692 360.362 57.62 360.418 57.564C360.474 57.508 360.546 57.48 360.634 57.48H361.834C361.914 57.48 361.982 57.508 362.038 57.564C362.094 57.62 362.122 57.692 362.122 57.78V65.7C362.122 65.788 362.094 65.86 362.038 65.916C361.982 65.972 361.914 66 361.834 66H360.634ZM363.927 66C363.847 66 363.779 65.972 363.723 65.916C363.667 65.86 363.639 65.788 363.639 65.7V60.06C363.639 59.972 363.667 59.9 363.723 59.844C363.779 59.788 363.847 59.76 363.927 59.76H365.127C365.215 59.76 365.287 59.788 365.343 59.844C365.399 59.9 365.427 59.972 365.427 60.06V65.7C365.427 65.788 365.399 65.86 365.343 65.916C365.287 65.972 365.215 66 365.127 66H363.927ZM363.891 58.8C363.811 58.8 363.743 58.772 363.687 58.716C363.631 58.66 363.603 58.588 363.603 58.5V57.54C363.603 57.452 363.631 57.38 363.687 57.324C363.743 57.26 363.811 57.228 363.891 57.228H365.151C365.239 57.228 365.311 57.26 365.367 57.324C365.431 57.38 365.463 57.452 365.463 57.54V58.5C365.463 58.588 365.431 58.66 365.367 58.716C365.311 58.772 365.239 58.8 365.151 58.8H363.891ZM369.392 66.12C368.896 66.12 368.468 66.064 368.108 65.952C367.756 65.832 367.468 65.688 367.244 65.52C367.028 65.352 366.864 65.184 366.752 65.016C366.648 64.84 366.592 64.692 366.584 64.572C366.576 64.484 366.604 64.412 366.668 64.356C366.732 64.3 366.796 64.272 366.86 64.272H368.024C368.048 64.272 368.072 64.276 368.096 64.284C368.12 64.292 368.144 64.312 368.168 64.344C368.272 64.416 368.38 64.5 368.492 64.596C368.604 64.684 368.732 64.76 368.876 64.824C369.028 64.888 369.216 64.92 369.44 64.92C369.704 64.92 369.928 64.868 370.112 64.764C370.296 64.652 370.388 64.496 370.388 64.296C370.388 64.152 370.344 64.032 370.256 63.936C370.176 63.84 370.02 63.752 369.788 63.672C369.556 63.592 369.212 63.504 368.756 63.408C368.324 63.312 367.956 63.184 367.652 63.024C367.348 62.864 367.12 62.664 366.968 62.424C366.816 62.176 366.74 61.88 366.74 61.536C366.74 61.224 366.836 60.924 367.028 60.636C367.228 60.348 367.52 60.112 367.904 59.928C368.288 59.736 368.768 59.64 369.344 59.64C369.784 59.64 370.168 59.696 370.496 59.808C370.832 59.912 371.112 60.048 371.336 60.216C371.56 60.376 371.728 60.544 371.84 60.72C371.96 60.888 372.024 61.036 372.032 61.164C372.04 61.244 372.016 61.312 371.96 61.368C371.904 61.424 371.84 61.452 371.768 61.452H370.7C370.66 61.452 370.624 61.448 370.592 61.44C370.56 61.424 370.532 61.404 370.508 61.38C370.412 61.316 370.312 61.244 370.208 61.164C370.112 61.076 369.996 61 369.86 60.936C369.724 60.872 369.548 60.84 369.332 60.84C369.068 60.84 368.864 60.9 368.72 61.02C368.584 61.132 368.516 61.276 368.516 61.452C368.516 61.564 368.552 61.668 368.624 61.764C368.696 61.86 368.844 61.948 369.068 62.028C369.292 62.108 369.632 62.192 370.088 62.28C370.632 62.376 371.064 62.52 371.384 62.712C371.704 62.904 371.932 63.128 372.068 63.384C372.212 63.632 372.284 63.9 372.284 64.188C372.284 64.564 372.172 64.9 371.948 65.196C371.724 65.484 371.396 65.712 370.964 65.88C370.54 66.04 370.016 66.12 369.392 66.12ZM376.412 66C375.916 66 375.492 65.92 375.14 65.76C374.788 65.592 374.52 65.336 374.336 64.992C374.16 64.648 374.072 64.216 374.072 63.696V61.176H373.136C373.048 61.176 372.976 61.148 372.92 61.092C372.864 61.036 372.836 60.964 372.836 60.876V60.06C372.836 59.972 372.864 59.9 372.92 59.844C372.976 59.788 373.048 59.76 373.136 59.76H374.072V57.78C374.072 57.692 374.1 57.62 374.156 57.564C374.22 57.508 374.292 57.48 374.372 57.48H375.548C375.636 57.48 375.708 57.508 375.764 57.564C375.82 57.62 375.848 57.692 375.848 57.78V59.76H377.348C377.428 59.76 377.496 59.788 377.552 59.844C377.608 59.9 377.636 59.972 377.636 60.06V60.876C377.636 60.964 377.608 61.036 377.552 61.092C377.496 61.148 377.428 61.176 377.348 61.176H375.848V63.552C375.848 63.856 375.9 64.096 376.004 64.272C376.116 64.44 376.308 64.524 376.58 64.524H377.456C377.536 64.524 377.604 64.552 377.66 64.608C377.716 64.664 377.744 64.732 377.744 64.812V65.7C377.744 65.788 377.716 65.86 377.66 65.916C377.604 65.972 377.536 66 377.456 66H376.412Z" fill="black" fill-opacity="0.7"/>
</g>
</g>
</g>
</g>
<defs>
<filter id="filter0_i_50251_4226" x="224" y="116" width="224" height="224" filterUnits="userSpaceOnUse" color-interpolation-filters="sRGB">
<feFlood flood-opacity="0" result="BackgroundImageFix"/>
<feBlend mode="normal" in="SourceGraphic" in2="BackgroundImageFix" result="shape"/>
<feColorMatrix in="SourceAlpha" type="matrix" values="0 0 0 0 0 0 0 0 0 0 0 0 0 0 0 0 0 0 127 0" result="hardAlpha"/>
<feOffset dx="2" dy="4"/>
<feGaussianBlur stdDeviation="8"/>
<feComposite in2="hardAlpha" operator="arithmetic" k2="-1" k3="1"/>
<feColorMatrix type="matrix" values="0 0 0 0 0.972549 0 0 0 0 0.972549 0 0 0 0 0.972549 0 0 0 0.06 0"/>
<feBlend mode="normal" in2="shape" result="effect1_innerShadow_50251_4226"/>
</filter>
<clipPath id="bgblur_2_50251_4226_clip_path" transform="translate(-224 -116)"><rect x="324" y="216" width="24" height="24" rx="8"/>
</clipPath><filter id="filter1_i_50251_4226" x="224" y="76" width="224" height="224" filterUnits="userSpaceOnUse" color-interpolation-filters="sRGB">
<feFlood flood-opacity="0" result="BackgroundImageFix"/>
<feBlend mode="normal" in="SourceGraphic" in2="BackgroundImageFix" result="shape"/>
<feColorMatrix in="SourceAlpha" type="matrix" values="0 0 0 0 0 0 0 0 0 0 0 0 0 0 0 0 0 0 127 0" result="hardAlpha"/>
<feOffset dx="2" dy="4"/>
<feGaussianBlur stdDeviation="8"/>
<feComposite in2="hardAlpha" operator="arithmetic" k2="-1" k3="1"/>
<feColorMatrix type="matrix" values="0 0 0 0 0.972549 0 0 0 0 0.972549 0 0 0 0 0.972549 0 0 0 0.06 0"/>
<feBlend mode="normal" in2="shape" result="effect1_innerShadow_50251_4226"/>
</filter>
<clipPath id="bgblur_3_50251_4226_clip_path" transform="translate(-224 -76)"><rect x="324" y="176" width="24" height="24" rx="8"/>
</clipPath><filter id="filter2_i_50251_4226" x="224" y="36" width="224" height="224" filterUnits="userSpaceOnUse" color-interpolation-filters="sRGB">
<feFlood flood-opacity="0" result="BackgroundImageFix"/>
<feBlend mode="normal" in="SourceGraphic" in2="BackgroundImageFix" result="shape"/>
<feColorMatrix in="SourceAlpha" type="matrix" values="0 0 0 0 0 0 0 0 0 0 0 0 0 0 0 0 0 0 127 0" result="hardAlpha"/>
<feOffset dx="2" dy="4"/>
<feGaussianBlur stdDeviation="8"/>
<feComposite in2="hardAlpha" operator="arithmetic" k2="-1" k3="1"/>
<feColorMatrix type="matrix" values="0 0 0 0 0.972549 0 0 0 0 0.972549 0 0 0 0 0.972549 0 0 0 0.06 0"/>
<feBlend mode="normal" in2="shape" result="effect1_innerShadow_50251_4226"/>
</filter>
<clipPath id="bgblur_4_50251_4226_clip_path" transform="translate(-224 -36)"><rect x="324" y="136" width="24" height="24" rx="8"/>
</clipPath><filter id="filter3_i_50251_4226" x="224" y="-4" width="224" height="224" filterUnits="userSpaceOnUse" color-interpolation-filters="sRGB">
<feFlood flood-opacity="0" result="BackgroundImageFix"/>
<feBlend mode="normal" in="SourceGraphic" in2="BackgroundImageFix" result="shape"/>
<feColorMatrix in="SourceAlpha" type="matrix" values="0 0 0 0 0 0 0 0 0 0 0 0 0 0 0 0 0 0 127 0" result="hardAlpha"/>
<feOffset dx="2" dy="4"/>
<feGaussianBlur stdDeviation="8"/>
<feComposite in2="hardAlpha" operator="arithmetic" k2="-1" k3="1"/>
<feColorMatrix type="matrix" values="0 0 0 0 0.972549 0 0 0 0 0.972549 0 0 0 0 0.972549 0 0 0 0.06 0"/>
<feBlend mode="normal" in2="shape" result="effect1_innerShadow_50251_4226"/>
</filter>
<clipPath id="bgblur_6_50251_4226_clip_path" transform="translate(-224 4)"><rect x="324" y="96" width="24" height="24" rx="8"/>
</clipPath><filter id="filter4_i_50251_4226" x="220" y="-54" width="440" height="232" filterUnits="userSpaceOnUse" color-interpolation-filters="sRGB">
<feFlood flood-opacity="0" result="BackgroundImageFix"/>
<feBlend mode="normal" in="SourceGraphic" in2="BackgroundImageFix" result="shape"/>
<feColorMatrix in="SourceAlpha" type="matrix" values="0 0 0 0 0 0 0 0 0 0 0 0 0 0 0 0 0 0 127 0" result="hardAlpha"/>
<feOffset dx="2" dy="4"/>
<feGaussianBlur stdDeviation="8"/>
<feComposite in2="hardAlpha" operator="arithmetic" k2="-1" k3="1"/>
<feColorMatrix type="matrix" values="0 0 0 0 0.972549 0 0 0 0 0.972549 0 0 0 0 0.972549 0 0 0 0.06 0"/>
<feBlend mode="normal" in2="shape" result="effect1_innerShadow_50251_4226"/>
</filter>
<clipPath id="bgblur_7_50251_4226_clip_path" transform="translate(-220 54)"><rect x="320" y="46" width="240" height="32" rx="10"/>
</clipPath><filter id="filter5_i_50251_4226" x="220.074" y="-54" width="427" height="232" filterUnits="userSpaceOnUse" color-interpolation-filters="sRGB">
<feFlood flood-opacity="0" result="BackgroundImageFix"/>
<feBlend mode="normal" in="SourceGraphic" in2="BackgroundImageFix" result="shape"/>
<feColorMatrix in="SourceAlpha" type="matrix" values="0 0 0 0 0 0 0 0 0 0 0 0 0 0 0 0 0 0 127 0" result="hardAlpha"/>
<feOffset dx="2" dy="4"/>
<feGaussianBlur stdDeviation="8"/>
<feComposite in2="hardAlpha" operator="arithmetic" k2="-1" k3="1"/>
<feColorMatrix type="matrix" values="0 0 0 0 0.972549 0 0 0 0 0.972549 0 0 0 0 0.972549 0 0 0 0.06 0"/>
<feBlend mode="normal" in2="shape" result="effect1_innerShadow_50251_4226"/>
</filter>
<clipPath id="bgblur_8_50251_4226_clip_path" transform="translate(-220.074 54)"><path d="M320.074 54C320.074 49.5817 323.656 46 328.074 46H539.074C543.492 46 547.074 49.5817 547.074 54V70C547.074 74.4183 543.492 78 539.074 78H328.074C323.656 78 320.074 74.4183 320.074 70V54Z"/>
</clipPath><linearGradient id="paint0_linear_50251_4226" x1="336" y1="216" x2="336" y2="240" gradientUnits="userSpaceOnUse">
<stop stop-color="white"/>
<stop offset="1" stop-color="#A6DDFF" stop-opacity="0"/>
</linearGradient>
<linearGradient id="paint1_linear_50251_4226" x1="336" y1="216" x2="346.44" y2="242.355" gradientUnits="userSpaceOnUse">
<stop stop-color="#F041A1" stop-opacity="0.4"/>
<stop offset="0.4" stop-opacity="0"/>
<stop offset="0.6" stop-opacity="0"/>
<stop offset="1" stop-color="#EB578D" stop-opacity="0.1"/>
</linearGradient>
<linearGradient id="paint2_linear_50251_4226" x1="397.074" y1="210.75" x2="540.828" y2="222.856" gradientUnits="userSpaceOnUse">
<stop stop-color="#AF0CC8"/>
<stop offset="1" stop-color="#666666" stop-opacity="0"/>
</linearGradient>
<linearGradient id="paint3_linear_50251_4226" x1="336" y1="176" x2="336" y2="200" gradientUnits="userSpaceOnUse">
<stop stop-color="white"/>
<stop offset="1" stop-color="#A6DDFF" stop-opacity="0"/>
</linearGradient>
<linearGradient id="paint4_linear_50251_4226" x1="336" y1="176" x2="346.44" y2="202.355" gradientUnits="userSpaceOnUse">
<stop stop-color="#F041A1" stop-opacity="0.4"/>
<stop offset="0.4" stop-opacity="0"/>
<stop offset="0.6" stop-opacity="0"/>
<stop offset="1" stop-color="#EB578D" stop-opacity="0.1"/>
</linearGradient>
<linearGradient id="paint5_linear_50251_4226" x1="380.074" y1="176" x2="537.8" y2="181.341" gradientUnits="userSpaceOnUse">
<stop stop-color="#AF0CC8"/>
<stop offset="1" stop-color="#666666" stop-opacity="0"/>
</linearGradient>
<linearGradient id="paint6_linear_50251_4226" x1="336" y1="136" x2="336" y2="160" gradientUnits="userSpaceOnUse">
<stop stop-color="white"/>
<stop offset="1" stop-color="#A6DDFF" stop-opacity="0"/>
</linearGradient>
<linearGradient id="paint7_linear_50251_4226" x1="336" y1="136" x2="346.44" y2="162.355" gradientUnits="userSpaceOnUse">
<stop stop-color="#F041A1" stop-opacity="0.4"/>
<stop offset="0.4" stop-opacity="0"/>
<stop offset="0.6" stop-opacity="0"/>
<stop offset="1" stop-color="#EB578D" stop-opacity="0.1"/>
</linearGradient>
<linearGradient id="paint8_linear_50251_4226" x1="369.074" y1="150" x2="454.988" y2="155.359" gradientUnits="userSpaceOnUse">
<stop stop-color="#AF0CC8"/>
<stop offset="1" stop-color="#666666" stop-opacity="0"/>
</linearGradient>
<linearGradient id="paint9_linear_50251_4226" x1="381.074" y1="134" x2="543.793" y2="139.341" gradientUnits="userSpaceOnUse">
<stop stop-color="#AF0CC8"/>
<stop offset="1" stop-color="#666666" stop-opacity="0"/>
</linearGradient>
<linearGradient id="paint10_linear_50251_4226" x1="336" y1="96" x2="336" y2="120" gradientUnits="userSpaceOnUse">
<stop stop-color="white"/>
<stop offset="1" stop-color="#A6DDFF" stop-opacity="0"/>
</linearGradient>
<linearGradient id="paint11_linear_50251_4226" x1="336" y1="96" x2="346.44" y2="122.355" gradientUnits="userSpaceOnUse">
<stop stop-color="#F041A1" stop-opacity="0.4"/>
<stop offset="0.4" stop-opacity="0"/>
<stop offset="0.6" stop-opacity="0"/>
<stop offset="1" stop-color="#EB578D" stop-opacity="0.1"/>
</linearGradient>
<linearGradient id="paint12_linear_50251_4226" x1="373.074" y1="110" x2="537.074" y2="126.5" gradientUnits="userSpaceOnUse">
<stop stop-color="#AF0CC8"/>
<stop offset="1" stop-color="#666666" stop-opacity="0"/>
</linearGradient>
<linearGradient id="paint13_linear_50251_4226" x1="464.574" y1="100" x2="543.074" y2="106" gradientUnits="userSpaceOnUse">
<stop stop-color="#AF0CC8"/>
<stop offset="1" stop-color="#666666" stop-opacity="0"/>
</linearGradient>
<linearGradient id="paint14_linear_50251_4226" x1="433.574" y1="46" x2="433.574" y2="78" gradientUnits="userSpaceOnUse">
<stop stop-color="white"/>
<stop offset="1" stop-color="#A6DDFF" stop-opacity="0"/>
</linearGradient>
<linearGradient id="paint15_linear_50251_4226" x1="433.574" y1="46" x2="435.838" y2="86.5282" gradientUnits="userSpaceOnUse">
<stop stop-color="#F041A1" stop-opacity="0.4"/>
<stop offset="0.4" stop-opacity="0"/>
<stop offset="0.6" stop-opacity="0"/>
<stop offset="1" stop-color="#EB578D" stop-opacity="0.1"/>
</linearGradient>
<clipPath id="clip0_50251_4226">
<rect width="538.388" height="236" fill="white"/>
</clipPath>
<clipPath id="clip1_50251_4226">
<rect width="240" height="234" fill="white" transform="translate(320 10)"/>
</clipPath>
<clipPath id="clip5_50251_4226">
<rect x="324" y="96" width="24" height="24" rx="8" fill="white"/>
</clipPath>
</defs>
</svg>
