<svg width="120" height="120" viewBox="0 0 120 120" fill="none" xmlns="http://www.w3.org/2000/svg">
<path fill-rule="evenodd" clip-rule="evenodd" d="M42.9349 38.6663C42.9349 29.2406 50.5759 21.5996 60.0016 21.5996C69.4272 21.5996 77.0682 29.2406 77.0682 38.6663V42.9329H81.3349C90.7606 42.9329 98.4016 50.574 98.4016 59.9996C98.4016 69.4253 90.7606 77.0663 81.3349 77.0663H77.0682V81.3329C77.0682 90.7586 69.4272 98.3996 60.0016 98.3996C50.5759 98.3996 42.9349 90.7586 42.9349 81.3329V77.0663H38.6682C29.2426 77.0663 21.6016 69.4253 21.6016 59.9996C21.6016 50.574 29.2426 42.9329 38.6682 42.9329H42.9349V38.6663ZM41.8682 60.5329C48.7689 62.1663 57.9628 72.1542 60.0016 80.2663C62.0404 72.1542 71.2343 62.1663 78.1349 60.5329C71.2343 58.8996 62.0404 48.9117 60.0016 40.7996C57.9628 48.9117 48.7689 58.8996 41.8682 60.5329Z" fill="url(#paint0_radial_50228_3412)"/>
<defs>
<radialGradient id="paint0_radial_50228_3412" cx="0" cy="0" r="1" gradientUnits="userSpaceOnUse" gradientTransform="translate(60.0016 59.9996) rotate(90) scale(38.4)">
<stop stop-color="white"/>
<stop offset="0.457376" stop-color="white" stop-opacity="0.99"/>
<stop offset="1" stop-color="#45C1F7"/>
</radialGradient>
</defs>
</svg>
