<svg width="120" height="120" viewBox="0 0 120 120" fill="none" xmlns="http://www.w3.org/2000/svg">
<path fill-rule="evenodd" clip-rule="evenodd" d="M38.3984 45.6C38.3984 33.6707 48.0691 24 59.9984 24C71.9278 24 81.5984 33.6707 81.5984 45.6V74.4C81.5984 86.3293 71.9278 96 59.9984 96C48.0691 96 38.3984 86.3293 38.3984 74.4V45.6ZM45.5984 72.6C45.5984 80.5529 52.0455 87 59.9984 87C67.9513 87 74.3984 80.5529 74.3984 72.6V47.4C74.3984 39.4471 67.9513 33 59.9984 33C52.0455 33 45.5984 39.4471 45.5984 47.4V72.6Z" fill="url(#paint0_linear_50228_3382)"/>
<path fill-rule="evenodd" clip-rule="evenodd" d="M45.6 81.5996C33.6706 81.5996 24 71.929 24 59.9996C24 48.0703 33.6706 38.3996 45.6 38.3996H74.4C86.3293 38.3996 96 48.0703 96 59.9996C96 71.929 86.3293 81.5996 74.4 81.5996H45.6ZM72.6 74.3996C80.5529 74.3996 87 67.9525 87 59.9996C87 52.0467 80.5529 45.5996 72.6 45.5996H47.4C39.4471 45.5996 33 52.0467 33 59.9996C33 67.9525 39.4471 74.3996 47.4 74.3996H72.6Z" fill="url(#paint1_linear_50228_3382)"/>
<defs>
<linearGradient id="paint0_linear_50228_3382" x1="59.9982" y1="50.6661" x2="55.4932" y2="96.8125" gradientUnits="userSpaceOnUse">
<stop stop-color="#FFCB2F"/>
<stop offset="1" stop-color="#FFCB2F" stop-opacity="0.1"/>
</linearGradient>
<linearGradient id="paint1_linear_50228_3382" x1="79.9405" y1="73.1518" x2="85.3245" y2="37.714" gradientUnits="userSpaceOnUse">
<stop stop-color="#F46A1A" stop-opacity="0.8"/>
<stop offset="1" stop-color="#F46A1A" stop-opacity="0"/>
</linearGradient>
</defs>
</svg>
