<svg width="60" height="60" viewBox="0 0 60 60" fill="none" xmlns="http://www.w3.org/2000/svg">
<path d="M46.625 8.625C47.8848 8.625 49.093 9.12544 49.9838 10.0162C50.8746 10.907 51.375 12.1152 51.375 13.375V46.625C51.375 47.8848 50.8746 49.093 49.9838 49.9838C49.093 50.8746 47.8848 51.375 46.625 51.375H13.375C12.1152 51.375 10.907 50.8746 10.0162 49.9838C9.12544 49.093 8.625 47.8848 8.625 46.625V13.375C8.625 12.1152 9.12544 10.907 10.0162 10.0162C10.907 9.12544 12.1152 8.625 13.375 8.625H46.625ZM45.4375 45.4375V32.85C45.4375 30.7966 44.6218 28.8272 43.1698 27.3752C41.7178 25.9232 39.7484 25.1075 37.695 25.1075C35.6762 25.1075 33.325 26.3425 32.185 28.195V25.5588H25.5588V45.4375H32.185V33.7287C32.185 31.9 33.6575 30.4037 35.4863 30.4037C36.3681 30.4037 37.2138 30.7541 37.8374 31.3776C38.4609 32.0012 38.8113 32.8469 38.8113 33.7287V45.4375H45.4375ZM17.84 21.83C18.8982 21.83 19.9131 21.4096 20.6614 20.6614C21.4096 19.9131 21.83 18.8982 21.83 17.84C21.83 15.6313 20.0487 13.8263 17.84 13.8263C16.7755 13.8263 15.7546 14.2491 15.0019 15.0019C14.2491 15.7546 13.8263 16.7755 13.8263 17.84C13.8263 20.0487 15.6313 21.83 17.84 21.83ZM21.1413 45.4375V25.5588H14.5625V45.4375H21.1413Z" fill="white"/>
</svg>
