<svg width="24" height="24" viewBox="0 0 24 24" fill="none" xmlns="http://www.w3.org/2000/svg">
<mask id="mask0_50517_98259" style="mask-type:alpha" maskUnits="userSpaceOnUse" x="0" y="0" width="24" height="24">
<rect width="24" height="24" transform="matrix(0 1 1 0 0 0)" fill="#D9D9D9"/>
</mask>
<g mask="url(#mask0_50517_98259)">
<path d="M12 14.4746L4.65 7.12462C4.4 6.87462 4.10417 6.75379 3.7625 6.76212C3.42083 6.77046 3.125 6.89962 2.875 7.14962C2.625 7.39962 2.5 7.69546 2.5 8.03712C2.5 8.37879 2.625 8.67462 2.875 8.92462L10.575 16.5996C10.775 16.7996 11 16.9496 11.25 17.0496C11.5 17.1496 11.75 17.1996 12 17.1996C12.25 17.1996 12.5 17.1496 12.75 17.0496C13 16.9496 13.225 16.7996 13.425 16.5996L21.125 8.89962C21.375 8.64962 21.4958 8.35796 21.4875 8.02462C21.4792 7.69129 21.35 7.39962 21.1 7.14962C20.85 6.89962 20.5542 6.77462 20.2125 6.77462C19.8708 6.77462 19.575 6.89962 19.325 7.14962L12 14.4746Z" fill="black"/>
</g>
</svg>
