<svg width="48" height="48" viewBox="0 0 48 48" fill="none" xmlns="http://www.w3.org/2000/svg">
<mask id="mask0_50437_98005" style="mask-type:alpha" maskUnits="userSpaceOnUse" x="0" y="0" width="48" height="48">
<rect width="48" height="48" fill="#D9D9D9"/>
</mask>
<g mask="url(#mask0_50437_98005)">
<path d="M8 14C7.43333 14 6.95833 13.8083 6.575 13.425C6.19167 13.0417 6 12.5667 6 12C6 11.4333 6.19167 10.9583 6.575 10.575C6.95833 10.1917 7.43333 10 8 10H40C40.5667 10 41.0417 10.1917 41.425 10.575C41.8083 10.9583 42 11.4333 42 12C42 12.5667 41.8083 13.0417 41.425 13.425C41.0417 13.8083 40.5667 14 40 14H8ZM8 38C7.43333 38 6.95833 37.8083 6.575 37.425C6.19167 37.0417 6 36.5667 6 36C6 35.4333 6.19167 34.9583 6.575 34.575C6.95833 34.1917 7.43333 34 8 34H40C40.5667 34 41.0417 34.1917 41.425 34.575C41.8083 34.9583 42 35.4333 42 36C42 36.5667 41.8083 37.0417 41.425 37.425C41.0417 37.8083 40.5667 38 40 38H8ZM8 26C7.43333 26 6.95833 25.8083 6.575 25.425C6.19167 25.0417 6 24.5667 6 24C6 23.4333 6.19167 22.9583 6.575 22.575C6.95833 22.1917 7.43333 22 8 22H40C40.5667 22 41.0417 22.1917 41.425 22.575C41.8083 22.9583 42 23.4333 42 24C42 24.5667 41.8083 25.0417 41.425 25.425C41.0417 25.8083 40.5667 26 40 26H8Z" fill="white"/>
</g>
</svg>
