<svg width="24" height="24" viewBox="0 0 24 24" fill="none" xmlns="http://www.w3.org/2000/svg">
<mask id="mask0_50306_4018" style="mask-type:alpha" maskUnits="userSpaceOnUse" x="0" y="0" width="24" height="24">
<rect width="24" height="24" fill="#D9D9D9"/>
</mask>
<g mask="url(#mask0_50306_4018)">
<path d="M7.98145 2.27539C8.37394 2.27539 8.71712 2.42225 8.99902 2.7041H9L16.2705 9.99902H16.2715C16.4836 10.2112 16.645 10.4528 16.7529 10.7227C16.8586 10.9867 16.9131 11.2553 16.9131 11.5264C16.9131 11.7972 16.8584 12.0652 16.7529 12.3291C16.645 12.5988 16.4835 12.8406 16.2715 13.0527L8.97559 20.3486C8.69366 20.6305 8.35245 20.7743 7.96387 20.7646C7.57979 20.755 7.24307 20.6034 6.96387 20.3242C6.68219 20.0424 6.53613 19.699 6.53613 19.3066C6.53623 18.9142 6.68203 18.5709 6.96387 18.2891L13.7266 11.5254L6.94043 4.73926C6.65716 4.45599 6.51391 4.11038 6.52344 3.71582C6.53295 3.32564 6.68351 2.98457 6.96387 2.7041C7.2457 2.42227 7.58905 2.27548 7.98145 2.27539Z" fill="black" stroke="black" stroke-width="0.5"/>
</g>
</svg>
