<svg width="48" height="48" viewBox="0 0 48 48" fill="none" xmlns="http://www.w3.org/2000/svg">
<mask id="mask0_50437_98245" style="mask-type:alpha" maskUnits="userSpaceOnUse" x="0" y="0" width="48" height="48">
<rect width="48" height="48" fill="#D9D9D9"/>
</mask>
<g mask="url(#mask0_50437_98245)">
<path d="M24.0016 26.7996L14.2016 36.5996C13.8349 36.9663 13.3682 37.1496 12.8016 37.1496C12.2349 37.1496 11.7682 36.9663 11.4016 36.5996C11.0349 36.2329 10.8516 35.7663 10.8516 35.1996C10.8516 34.6329 11.0349 34.1663 11.4016 33.7996L21.2016 23.9996L11.4016 14.1996C11.0349 13.8329 10.8516 13.3663 10.8516 12.7996C10.8516 12.2329 11.0349 11.7663 11.4016 11.3996C11.7682 11.0329 12.2349 10.8496 12.8016 10.8496C13.3682 10.8496 13.8349 11.0329 14.2016 11.3996L24.0016 21.1996L33.8016 11.3996C34.1682 11.0329 34.6349 10.8496 35.2016 10.8496C35.7682 10.8496 36.2349 11.0329 36.6016 11.3996C36.9682 11.7663 37.1516 12.2329 37.1516 12.7996C37.1516 13.3663 36.9682 13.8329 36.6016 14.1996L26.8016 23.9996L36.6016 33.7996C36.9682 34.1663 37.1516 34.6329 37.1516 35.1996C37.1516 35.7663 36.9682 36.2329 36.6016 36.5996C36.2349 36.9663 35.7682 37.1496 35.2016 37.1496C34.6349 37.1496 34.1682 36.9663 33.8016 36.5996L24.0016 26.7996Z" fill="white"/>
</g>
</svg>
