<svg width="24" height="24" viewBox="0 0 24 24" fill="none" xmlns="http://www.w3.org/2000/svg">
<mask id="mask0_50306_3991" style="mask-type:alpha" maskUnits="userSpaceOnUse" x="0" y="0" width="24" height="24">
<rect width="24" height="24" transform="matrix(-1 0 0 1 24 0)" fill="#D9D9D9"/>
</mask>
<g mask="url(#mask0_50306_3991)">
<path d="M16.0186 2.27539C15.6261 2.27539 15.2829 2.42225 15.001 2.7041H15L7.72949 9.99902H7.72852C7.51636 10.2112 7.355 10.4528 7.24707 10.7227C7.14144 10.9867 7.08691 11.2553 7.08691 11.5264C7.08695 11.7972 7.14158 12.0652 7.24707 12.3291C7.35496 12.5988 7.51648 12.8406 7.72852 13.0527L15.0244 20.3486C15.3063 20.6305 15.6475 20.7743 16.0361 20.7646C16.4202 20.755 16.7569 20.6034 17.0361 20.3242C17.3178 20.0424 17.4639 19.699 17.4639 19.3066C17.4638 18.9142 17.318 18.5709 17.0361 18.2891L10.2734 11.5254L17.0596 4.73926C17.3428 4.45599 17.4861 4.11038 17.4766 3.71582C17.467 3.32564 17.3165 2.98457 17.0361 2.7041C16.7543 2.42227 16.4109 2.27548 16.0186 2.27539Z" fill="black" stroke="black" stroke-width="0.5"/>
</g>
</svg>
